<svg xmlns="http://www.w3.org/2000/svg" width="980" height="200" fill="none" viewBox="0 0 980 200"><g clip-path="url(#a)"><path fill="#0c151d" d="M583.718 146q-1.26 0-1.26-1.4V55.7q0-1.4 1.26-1.4h21.84q14.42 0 21.28 6.44t6.86 19.6q0 10.08-3.64 16.38t-10.22 8.82v.14l17.64 38.5q.84 1.82-.98 1.82h-12.04q-.98 0-1.4-.98l-16.52-37.1h-10.78v36.68q0 1.4-1.26 1.4zm12.04-49.42h9.52q7.98 0 11.48-3.78t3.5-11.76q0-8.12-3.5-11.48t-11.2-3.36h-9.8zM524.385 146q-1.4 0-1.4-1.4V55.7q0-1.4 1.26-1.4h41.86q1.26 0 1.26 1.4v9.24q0 1.54-1.26 1.54h-29.82v27.16h27.16q1.26 0 1.26 1.4v8.82q0 1.4-1.26 1.4h-27.16v28.56h29.82q1.26 0 1.26 1.54v9.24q0 1.4-1.26 1.4zm-70.957 0q-1.4 0-1.4-1.4V55.7q0-1.4 1.4-1.4h20.44q17.5 0 26.18 9.66 8.68 9.519 8.68 28.98V104q0 21.14-8.54 31.64-8.54 10.36-25.9 10.36zm11.9-12.04h8.12q11.34 0 16.66-7.14t5.32-22.4v-11.9q0-13.3-5.32-19.74t-16.94-6.44h-7.84zM379.87 146q-1.26 0-1.26-1.4V55.7q0-1.4 1.26-1.4h15.82q1.26 0 1.54.98l17.78 49a124 124 0 0 1 2.94 8.4q1.54 4.48 2.8 8.68 1.4 4.059 2.24 7.56h.42q-.28-3.78-.56-8.54l-.28-9.52V55.7q0-1.4 1.26-1.4h10.36q1.26 0 1.26 1.4v88.9q0 1.4-1.26 1.4h-15.68q-.98 0-1.54-.98l-17.36-47.6q-2.52-6.72-4.62-13.3a552 552 0 0 0-3.78-12.46h-.28q.14 4.06.14 9.1l.28 9.8q.14 4.899.14 9.24v44.8q0 1.4-1.26 1.4zm-72.387 0q-1.4 0-.98-1.54l23.1-89.04q.28-1.12 1.54-1.12h14.42q1.12 0 1.54 1.12l23.38 89.04q.28 1.54-1.12 1.54h-11.9q-.84 0-1.4-1.12l-13.72-58.8q-1.12-4.62-2.1-9.24a1602 1602 0 0 1-1.96-9.38h-.28a279 279 0 0 1-1.82 9.38 746 746 0 0 0-1.96 9.24l-13.72 58.8q-.28 1.12-1.54 1.12zm15.4-20.72 2.38-11.48h25.76l2.66 11.48zM228.353 146q-1.4 0-1.4-1.4l1.54-88.9q0-1.4 1.4-1.4h14.7q1.12 0 1.68 1.12l17.22 51.66 17.08-51.66q.42-1.12 1.54-1.12h14.84q1.26 0 1.26 1.4l1.54 88.9q0 1.4-1.26 1.4h-10.64q-1.26 0-1.26-1.4l-.84-50.4q0-5.32.14-10.5.14-5.32.42-10.22h-.42q-1.26 4.48-2.94 9.38a214 214 0 0 1-3.22 9.24l-14.7 41.16q-.28 1.12-1.4 1.12h-.56q-1.12 0-1.4-1.12l-14.84-41.44q-1.68-4.62-3.22-9.24-1.4-4.62-2.8-9.1h-.28q.28 4.76.42 10.08.14 5.18.14 10.5l-.98 50.54q0 1.4-1.26 1.4zm-86.269 0q-1.4 0-1.4-1.4l1.54-88.9q0-1.4 1.4-1.4h14.7q1.119 0 1.68 1.12l17.22 51.66 17.08-51.66q.42-1.12 1.54-1.12h14.84q1.26 0 1.26 1.4l1.54 88.9q0 1.4-1.26 1.4h-10.64q-1.26 0-1.26-1.4l-.84-50.4q0-5.32.14-10.5.14-5.32.42-10.22h-.42q-1.26 4.48-2.94 9.38a214 214 0 0 1-3.22 9.24l-14.7 41.16q-.28 1.12-1.4 1.12h-.56q-1.12 0-1.4-1.12l-14.84-41.44q-1.68-4.62-3.22-9.24-1.4-4.62-2.8-9.1h-.28q.279 4.76.42 10.08.14 5.18.14 10.5l-.98 50.54q0 1.4-1.26 1.4zm-43.791 1.12q-14.14 0-21.56-7.7-7.28-7.7-7.28-22.4v-33.6q0-14.84 7.28-22.54 7.42-7.7 21.56-7.7t21.42 7.7q7.42 7.7 7.42 22.54v33.6q0 14.7-7.42 22.4-7.28 7.7-21.42 7.7m0-12.18q7.7 0 11.62-4.48 3.92-4.62 3.92-14V83.98q0-9.52-3.92-14-3.92-4.62-11.62-4.62-7.56 0-11.48 4.62-3.92 4.48-3.92 14v32.48q0 9.38 3.92 14 3.92 4.48 11.48 4.48M28.84 147.12q-14 0-21.42-7.7T0 116.18V84.12q0-15.26 7.42-23.1t21.42-7.84q9.52 0 16.24 3.92 6.72 3.78 9.8 10.92 3.08 7 1.82 16.52-.14 1.54-1.4 1.54H44.52q-1.26 0-1.26-1.4.7-9.38-2.94-14.28-3.64-5.04-11.34-5.04-7.56 0-11.62 4.76-3.92 4.62-3.92 14.56v30.94q0 9.94 3.92 14.7 4.06 4.62 11.62 4.62 7.98 0 11.62-5.18 3.64-5.32 2.94-14.14-.28-1.4 1.12-1.4H55.3q1.26 0 1.54 1.54 1.12 14.56-6.3 22.96t-21.7 8.4"/><path fill="url(#b)" d="M944.28 100c0-54.124-43.876-98-98-98s-98 43.876-98 98 43.876 98 98 98v2c-55.228 0-100-44.772-100-100s44.772-100 100-100 100 44.772 100 100-44.771 100-100 100v-2c54.124 0 98-43.876 98-98"/><path fill="#0c151d" d="M706.48 144v-18q0-5.64 1.8-9.84 1.92-4.2 6-7.44 4.08-3.36 10.8-6.24l14.16-6.12q5.4-2.28 7.92-5.64 2.64-3.36 2.64-8.52 0-5.28-3.24-8.64t-9.48-3.36-9.48 3.48-3.24 9.36h-19.08q0-8.28 3.6-14.88 3.6-6.72 10.68-10.56t17.52-3.84 17.4 3.72q7.08 3.72 10.68 9.96 3.72 6.24 3.72 14.04v1.44q0 10.08-5.52 16.68-5.52 6.48-17.04 11.52l-14.04 6.12q-3.6 1.56-5.16 3.24-1.44 1.68-1.44 4.56v6l-4.68-3.96h48V144zm211 0v-18q0-5.64 1.8-9.84 1.92-4.2 6-7.44 4.08-3.36 10.8-6.24l14.16-6.12q5.4-2.28 7.92-5.64 2.64-3.36 2.64-8.52 0-5.28-3.24-8.64t-9.48-3.36-9.48 3.48-3.24 9.36h-19.08q0-8.28 3.6-14.88 3.6-6.72 10.68-10.56t17.52-3.84 17.4 3.72q7.08 3.72 10.68 9.96 3.72 6.24 3.72 14.04v1.44q0 10.08-5.52 16.68-5.52 6.48-17.04 11.52l-14.04 6.12q-3.6 1.56-5.16 3.24-1.44 1.68-1.44 4.56v6l-4.68-3.96h48V144z"/><path fill="#f3a916" d="M745.275.995 844.27 78.99 943.265.995 865.27 99.99l77.995 98.995-98.995-77.995-98.995 77.995L823.27 99.99z"/></g><defs><linearGradient id="b" x1="846.28" x2="846.28" y1="0" y2="200" gradientUnits="userSpaceOnUse"><stop stop-color="#c8aa6e"/><stop offset=".6" stop-color="#c8aa6e" stop-opacity=".4"/></linearGradient><clipPath id="a"><path fill="#fff" d="M0 0h980v200H0z"/></clipPath></defs></svg>